<?xml version="1.0" encoding="UTF-8" standalone="no"?>
<!DOCTYPE svg PUBLIC "-//W3C//DTD SVG 1.1//EN" "http://www.w3.org/Graphics/SVG/1.1/DTD/svg11.dtd">
<svg width="100%" height="100%" viewBox="0 0 1042 1042" version="1.1" xmlns="http://www.w3.org/2000/svg" xmlns:xlink="http://www.w3.org/1999/xlink" xml:space="preserve" xmlns:serif="http://www.serif.com/" style="fill-rule:evenodd;clip-rule:evenodd;stroke-linejoin:round;stroke-miterlimit:2;">
    <g transform="matrix(1,0,0,1,20.7486,20.7486)">
        <g transform="matrix(1.11241,0,0,1.11241,-112.407,-69.0605)">
            <circle cx="550.524" cy="511.558" r="449.476" style="fill:white;"/>
        </g>
        <g id="favicon" transform="matrix(1.28571,0,0,1.28571,-142.857,-142.857)">
            <g>
                <path d="M726.193,503.685L500,351.644L311.407,476.846L248.14,434.112L500,265.02L850,500L739.838,573.96L680.43,534.082L726.193,503.685Z"/>
                <path d="M626.16,648.959L500,734.98L150,500L210.518,459.37L500,653.997L566.865,609.385L626.16,648.959Z"/>
                <g transform="matrix(1,0,0,1,3.49926,3.49926)">
                    <path d="M486.885,532.789L440.958,563.623L382.108,524.113L553.657,408.94L612.507,448.45L547.284,492.238L754.84,631.561L693.182,671.292L486.885,532.789Z"/>
                </g>
            </g>
        </g>
    </g>
</svg>
